<svg width="126" height="178" viewBox="0 0 126 178" fill="none" xmlns="http://www.w3.org/2000/svg">
<path d="M53.76 123.152L23.68 55.44H26.496L22.656 92.816C22.144 98.448 22.0587 102.715 22.4 105.616C22.7413 108.517 23.552 110.523 24.832 111.632C26.1973 112.741 28.0747 113.381 30.464 113.552C30.8053 114.832 31.0187 116.24 31.104 117.776C31.2747 119.312 31.36 120.848 31.36 122.384C29.9093 122.213 27.8187 122.085 25.088 122C22.4427 122 19.8827 122 17.408 122C15.7867 122 13.952 122 11.904 122C9.856 122.085 7.936 122.128 6.144 122.128C4.352 122.213 2.98667 122.299 2.048 122.384C2.048 120.848 2.13333 119.312 2.304 117.776C2.47467 116.24 2.73067 114.832 3.072 113.552C5.29067 113.381 7.08267 112.741 8.448 111.632C9.81333 110.437 10.9227 108.389 11.776 105.488C12.7147 102.501 13.3973 98.32 13.824 92.944L17.024 58C17.3653 54.16 17.3653 51.216 17.024 49.168C16.6827 47.12 15.8293 45.7547 14.464 45.072C13.184 44.304 11.3493 43.92 8.96 43.92C8.53333 42.5547 8.23467 41.1893 8.064 39.824C7.97867 38.3733 7.936 36.7947 7.936 35.088C9.13067 35.1733 10.7093 35.2587 12.672 35.344C14.72 35.344 16.768 35.3867 18.816 35.472C20.864 35.472 22.528 35.472 23.808 35.472C25.088 35.472 26.752 35.472 28.8 35.472C30.9333 35.3867 32.9813 35.344 34.944 35.344C36.9067 35.2587 38.3573 35.1733 39.296 35.088L66.944 99.728H62.72L86.656 35.088C88.1067 35.1733 89.856 35.2587 91.904 35.344C93.952 35.344 95.9573 35.3867 97.92 35.472C99.968 35.472 101.632 35.472 102.912 35.472C104.277 35.472 105.899 35.472 107.776 35.472C109.739 35.3867 111.659 35.344 113.536 35.344C115.499 35.2587 117.077 35.1733 118.272 35.088C118.272 36.624 118.187 38.2027 118.016 39.824C117.931 41.36 117.717 42.7253 117.376 43.92C113.707 43.92 111.232 44.944 109.952 46.992C108.757 48.9547 108.459 52.7093 109.056 58.256L112.896 96.4C113.408 101.179 113.963 104.763 114.56 107.152C115.243 109.541 116.181 111.12 117.376 111.888C118.656 112.656 120.405 113.168 122.624 113.424C122.965 114.704 123.179 116.112 123.264 117.648C123.349 119.099 123.392 120.677 123.392 122.384C122.539 122.299 121.173 122.213 119.296 122.128C117.504 122.128 115.456 122.085 113.152 122C110.848 122 108.587 122 106.368 122C104.235 122 102.443 122 100.992 122C99.0293 122 96.8107 122 94.336 122C91.8613 122.085 89.5147 122.128 87.296 122.128C85.0773 122.213 83.4133 122.299 82.304 122.384C82.304 120.592 82.3893 119.013 82.56 117.648C82.7307 116.283 82.9867 114.917 83.328 113.552C85.9733 113.211 87.8933 112.656 89.088 111.888C90.368 111.12 91.0933 109.669 91.264 107.536C91.4347 105.317 91.264 102.075 90.752 97.808L86.272 55.568H88.704L62.208 122.128C61.184 122.469 59.8613 122.725 58.24 122.896C56.6187 123.067 55.1253 123.152 53.76 123.152Z" fill="black"/>
<path d="M41 53C49.1667 61.6667 69.6 73.8 86 53" stroke="black" stroke-width="12"/>
</svg>
